<mxfile host="app.diagrams.net" agent="Mozilla/5.0 (Windows NT 10.0; Win64; x64) AppleWebKit/537.36 (KHTML, like Gecko) Chrome/135.0.0.0 Safari/537.36" version="26.2.14">
  <diagram name="Page-1" id="ElHYDtm8DYyzWI1VYrLb">
    <mxGraphModel dx="2180" dy="1268" grid="1" gridSize="10" guides="1" tooltips="1" connect="1" arrows="1" fold="1" page="1" pageScale="1" pageWidth="850" pageHeight="1100" math="0" shadow="0">
      <root>
        <mxCell id="0" />
        <mxCell id="1" parent="0" />
        <mxCell id="fEJGuQPyW0wvUsJ_kvxa-1" value="" style="rounded=1;whiteSpace=wrap;html=1;shadow=0;" vertex="1" parent="1">
          <mxGeometry x="50" y="60" width="350" height="130" as="geometry" />
        </mxCell>
        <mxCell id="fEJGuQPyW0wvUsJ_kvxa-2" value="" style="rounded=1;whiteSpace=wrap;html=1;" vertex="1" parent="1">
          <mxGeometry x="450" y="60" width="350" height="130" as="geometry" />
        </mxCell>
        <mxCell id="fEJGuQPyW0wvUsJ_kvxa-3" value="" style="rounded=1;whiteSpace=wrap;html=1;strokeColor=#000000;fillColor=#1FFFFF;" vertex="1" parent="1">
          <mxGeometry x="60" y="250" width="120" height="120" as="geometry" />
        </mxCell>
        <mxCell id="fEJGuQPyW0wvUsJ_kvxa-4" value="" style="rounded=1;whiteSpace=wrap;html=1;fillColor=#00FFFF;" vertex="1" parent="1">
          <mxGeometry x="260" y="250" width="120" height="120" as="geometry" />
        </mxCell>
        <mxCell id="fEJGuQPyW0wvUsJ_kvxa-5" value="" style="rounded=1;whiteSpace=wrap;html=1;fillColor=#FFB570;" vertex="1" parent="1">
          <mxGeometry x="60" y="530" width="120" height="120" as="geometry" />
        </mxCell>
        <mxCell id="fEJGuQPyW0wvUsJ_kvxa-6" value="" style="rounded=1;whiteSpace=wrap;html=1;fillColor=#FFB570;" vertex="1" parent="1">
          <mxGeometry x="260" y="530" width="120" height="120" as="geometry" />
        </mxCell>
        <mxCell id="fEJGuQPyW0wvUsJ_kvxa-7" value="" style="rounded=1;whiteSpace=wrap;html=1;fillColor=#00FFFF;" vertex="1" parent="1">
          <mxGeometry x="60" y="810" width="120" height="90" as="geometry" />
        </mxCell>
        <mxCell id="fEJGuQPyW0wvUsJ_kvxa-8" value="" style="rounded=1;whiteSpace=wrap;html=1;fillColor=#1FFFFF;" vertex="1" parent="1">
          <mxGeometry x="260" y="810" width="120" height="90" as="geometry" />
        </mxCell>
        <mxCell id="fEJGuQPyW0wvUsJ_kvxa-9" value="" style="rounded=1;whiteSpace=wrap;html=1;fillColor=#1FFFFF;" vertex="1" parent="1">
          <mxGeometry x="400" y="250" width="120" height="120" as="geometry" />
        </mxCell>
        <mxCell id="fEJGuQPyW0wvUsJ_kvxa-10" value="" style="rounded=1;whiteSpace=wrap;html=1;fillColor=#00FFFF;" vertex="1" parent="1">
          <mxGeometry x="565" y="250" width="120" height="120" as="geometry" />
        </mxCell>
        <mxCell id="fEJGuQPyW0wvUsJ_kvxa-11" value="" style="rounded=1;whiteSpace=wrap;html=1;fillColor=#1FFFFF;" vertex="1" parent="1">
          <mxGeometry x="720" y="250" width="120" height="120" as="geometry" />
        </mxCell>
        <mxCell id="fEJGuQPyW0wvUsJ_kvxa-12" value="" style="rounded=0;whiteSpace=wrap;html=1;fillColor=#A9C4EB;" vertex="1" parent="1">
          <mxGeometry x="420" y="540" width="410" height="90" as="geometry" />
        </mxCell>
        <mxCell id="fEJGuQPyW0wvUsJ_kvxa-13" value="" style="rounded=1;whiteSpace=wrap;html=1;fillColor=#A9C4EB;" vertex="1" parent="1">
          <mxGeometry x="460" y="800" width="340" height="110" as="geometry" />
        </mxCell>
        <mxCell id="fEJGuQPyW0wvUsJ_kvxa-15" value="" style="endArrow=classic;html=1;rounded=0;" edge="1" parent="1">
          <mxGeometry width="50" height="50" relative="1" as="geometry">
            <mxPoint x="120" y="380" as="sourcePoint" />
            <mxPoint x="120" y="520" as="targetPoint" />
            <Array as="points" />
          </mxGeometry>
        </mxCell>
        <mxCell id="fEJGuQPyW0wvUsJ_kvxa-19" value="" style="endArrow=classic;html=1;rounded=0;" edge="1" parent="1">
          <mxGeometry width="50" height="50" relative="1" as="geometry">
            <mxPoint x="320" y="380" as="sourcePoint" />
            <mxPoint x="320" y="520" as="targetPoint" />
          </mxGeometry>
        </mxCell>
        <mxCell id="fEJGuQPyW0wvUsJ_kvxa-20" value="" style="endArrow=classic;html=1;rounded=0;" edge="1" parent="1">
          <mxGeometry width="50" height="50" relative="1" as="geometry">
            <mxPoint x="120" y="670" as="sourcePoint" />
            <mxPoint x="120" y="800" as="targetPoint" />
          </mxGeometry>
        </mxCell>
        <mxCell id="fEJGuQPyW0wvUsJ_kvxa-21" value="" style="endArrow=classic;html=1;rounded=0;" edge="1" parent="1">
          <mxGeometry width="50" height="50" relative="1" as="geometry">
            <mxPoint x="320" y="670" as="sourcePoint" />
            <mxPoint x="320" y="800" as="targetPoint" />
          </mxGeometry>
        </mxCell>
        <mxCell id="fEJGuQPyW0wvUsJ_kvxa-22" value="" style="endArrow=classic;html=1;rounded=0;" edge="1" parent="1">
          <mxGeometry width="50" height="50" relative="1" as="geometry">
            <mxPoint x="460" y="380" as="sourcePoint" />
            <mxPoint x="460" y="530" as="targetPoint" />
          </mxGeometry>
        </mxCell>
        <mxCell id="fEJGuQPyW0wvUsJ_kvxa-23" value="" style="endArrow=classic;html=1;rounded=0;" edge="1" parent="1">
          <mxGeometry width="50" height="50" relative="1" as="geometry">
            <mxPoint x="620" y="380" as="sourcePoint" />
            <mxPoint x="620" y="530" as="targetPoint" />
            <Array as="points" />
          </mxGeometry>
        </mxCell>
        <mxCell id="fEJGuQPyW0wvUsJ_kvxa-25" value="" style="endArrow=classic;html=1;rounded=0;" edge="1" parent="1">
          <mxGeometry width="50" height="50" relative="1" as="geometry">
            <mxPoint x="780" y="380" as="sourcePoint" />
            <mxPoint x="780" y="530" as="targetPoint" />
            <Array as="points">
              <mxPoint x="780" y="460" />
            </Array>
          </mxGeometry>
        </mxCell>
        <mxCell id="fEJGuQPyW0wvUsJ_kvxa-27" value="" style="endArrow=classic;html=1;rounded=0;" edge="1" parent="1">
          <mxGeometry width="50" height="50" relative="1" as="geometry">
            <mxPoint x="620" y="690" as="sourcePoint" />
            <mxPoint x="620" y="790" as="targetPoint" />
          </mxGeometry>
        </mxCell>
        <mxCell id="fEJGuQPyW0wvUsJ_kvxa-28" value="Arsitektur Multiprosesor" style="text;strokeColor=none;align=center;fillColor=none;html=1;verticalAlign=middle;whiteSpace=wrap;rounded=0;strokeWidth=1;fontSize=25;" vertex="1" parent="1">
          <mxGeometry x="55" y="87.5" width="340" height="75" as="geometry" />
        </mxCell>
        <mxCell id="fEJGuQPyW0wvUsJ_kvxa-32" value="Arsitektur Dymmetric Multiprocecing (SMP)" style="text;strokeColor=none;align=center;fillColor=none;html=1;verticalAlign=middle;whiteSpace=wrap;rounded=0;fontSize=25;" vertex="1" parent="1">
          <mxGeometry x="450" y="87.5" width="350" height="82.5" as="geometry" />
        </mxCell>
        <mxCell id="fEJGuQPyW0wvUsJ_kvxa-34" value="" style="sketch=0;pointerEvents=1;shadow=0;dashed=0;html=1;strokeColor=none;fillColor=#434445;aspect=fixed;labelPosition=center;verticalLabelPosition=bottom;verticalAlign=top;align=center;outlineConnect=0;shape=mxgraph.vvd.cpu;" vertex="1" parent="1">
          <mxGeometry x="70" y="260" width="100" height="100" as="geometry" />
        </mxCell>
        <mxCell id="fEJGuQPyW0wvUsJ_kvxa-35" value="" style="sketch=0;pointerEvents=1;shadow=0;dashed=0;html=1;strokeColor=none;fillColor=#434445;aspect=fixed;labelPosition=center;verticalLabelPosition=bottom;verticalAlign=top;align=center;outlineConnect=0;shape=mxgraph.vvd.cpu;" vertex="1" parent="1">
          <mxGeometry x="270" y="260" width="100" height="100" as="geometry" />
        </mxCell>
        <mxCell id="fEJGuQPyW0wvUsJ_kvxa-36" value="" style="sketch=0;pointerEvents=1;shadow=0;dashed=0;html=1;strokeColor=none;fillColor=#434445;aspect=fixed;labelPosition=center;verticalLabelPosition=bottom;verticalAlign=top;align=center;outlineConnect=0;shape=mxgraph.vvd.cpu;" vertex="1" parent="1">
          <mxGeometry x="410" y="260" width="100" height="100" as="geometry" />
        </mxCell>
        <mxCell id="fEJGuQPyW0wvUsJ_kvxa-37" value="" style="sketch=0;pointerEvents=1;shadow=0;dashed=0;html=1;strokeColor=none;fillColor=#434445;aspect=fixed;labelPosition=center;verticalLabelPosition=bottom;verticalAlign=top;align=center;outlineConnect=0;shape=mxgraph.vvd.cpu;" vertex="1" parent="1">
          <mxGeometry x="575" y="260" width="100" height="100" as="geometry" />
        </mxCell>
        <mxCell id="fEJGuQPyW0wvUsJ_kvxa-38" value="" style="sketch=0;pointerEvents=1;shadow=0;dashed=0;html=1;strokeColor=none;fillColor=#434445;aspect=fixed;labelPosition=center;verticalLabelPosition=bottom;verticalAlign=top;align=center;outlineConnect=0;shape=mxgraph.vvd.cpu;" vertex="1" parent="1">
          <mxGeometry x="730" y="260" width="100" height="100" as="geometry" />
        </mxCell>
        <mxCell id="fEJGuQPyW0wvUsJ_kvxa-39" value="" style="sketch=0;html=1;aspect=fixed;strokeColor=none;shadow=0;fillColor=#3B8DF1;verticalAlign=top;labelPosition=center;verticalLabelPosition=bottom;shape=mxgraph.gcp2.memory_card" vertex="1" parent="1">
          <mxGeometry x="70" y="540" width="93" height="100" as="geometry" />
        </mxCell>
        <mxCell id="fEJGuQPyW0wvUsJ_kvxa-41" value="" style="sketch=0;html=1;aspect=fixed;strokeColor=none;shadow=0;fillColor=#3B8DF1;verticalAlign=top;labelPosition=center;verticalLabelPosition=bottom;shape=mxgraph.gcp2.memory_card" vertex="1" parent="1">
          <mxGeometry x="270" y="540" width="93" height="100" as="geometry" />
        </mxCell>
        <mxCell id="fEJGuQPyW0wvUsJ_kvxa-42" value="" style="sketch=0;html=1;aspect=fixed;strokeColor=none;shadow=0;fillColor=#3B8DF1;verticalAlign=top;labelPosition=center;verticalLabelPosition=bottom;shape=mxgraph.gcp2.memory_card" vertex="1" parent="1">
          <mxGeometry x="79.3" y="815" width="74.4" height="80" as="geometry" />
        </mxCell>
        <mxCell id="fEJGuQPyW0wvUsJ_kvxa-44" value="" style="sketch=0;html=1;aspect=fixed;strokeColor=none;shadow=0;fillColor=#3B8DF1;verticalAlign=top;labelPosition=center;verticalLabelPosition=bottom;shape=mxgraph.gcp2.memory_card" vertex="1" parent="1">
          <mxGeometry x="279.3" y="815" width="74.4" height="80" as="geometry" />
        </mxCell>
        <mxCell id="fEJGuQPyW0wvUsJ_kvxa-45" value="" style="sketch=0;pointerEvents=1;shadow=0;dashed=0;html=1;strokeColor=none;fillColor=#434445;aspect=fixed;labelPosition=center;verticalLabelPosition=bottom;verticalAlign=top;align=center;outlineConnect=0;shape=mxgraph.vvd.memory;" vertex="1" parent="1">
          <mxGeometry x="500" y="810" width="250" height="95" as="geometry" />
        </mxCell>
        <mxCell id="fEJGuQPyW0wvUsJ_kvxa-46" value="" style="html=1;strokeWidth=2;outlineConnect=0;dashed=0;align=center;fontSize=8;verticalLabelPosition=bottom;verticalAlign=top;shape=mxgraph.eip.control_bus;fillColor=#c0f5a9" vertex="1" parent="1">
          <mxGeometry x="507.5" y="550" width="235" height="70" as="geometry" />
        </mxCell>
        <mxCell id="fEJGuQPyW0wvUsJ_kvxa-47" value="1" style="text;strokeColor=none;align=center;fillColor=none;html=1;verticalAlign=middle;whiteSpace=wrap;rounded=0;fontSize=43;" vertex="1" parent="1">
          <mxGeometry x="90" y="295" width="60" height="30" as="geometry" />
        </mxCell>
        <mxCell id="fEJGuQPyW0wvUsJ_kvxa-48" value="2" style="text;strokeColor=none;align=center;fillColor=none;html=1;verticalAlign=middle;whiteSpace=wrap;rounded=0;fontSize=43;" vertex="1" parent="1">
          <mxGeometry x="290" y="295" width="60" height="30" as="geometry" />
        </mxCell>
        <mxCell id="fEJGuQPyW0wvUsJ_kvxa-49" value="1" style="text;strokeColor=none;align=center;fillColor=none;html=1;verticalAlign=middle;whiteSpace=wrap;rounded=0;fontSize=43;" vertex="1" parent="1">
          <mxGeometry x="430" y="295" width="60" height="30" as="geometry" />
        </mxCell>
        <mxCell id="fEJGuQPyW0wvUsJ_kvxa-50" value="2" style="text;strokeColor=none;align=center;fillColor=none;html=1;verticalAlign=middle;whiteSpace=wrap;rounded=0;fontSize=43;" vertex="1" parent="1">
          <mxGeometry x="595" y="295" width="60" height="30" as="geometry" />
        </mxCell>
        <mxCell id="fEJGuQPyW0wvUsJ_kvxa-51" value="3" style="text;strokeColor=none;align=center;fillColor=none;html=1;verticalAlign=middle;whiteSpace=wrap;rounded=0;fontSize=43;" vertex="1" parent="1">
          <mxGeometry x="750" y="295" width="60" height="30" as="geometry" />
        </mxCell>
        <mxCell id="fEJGuQPyW0wvUsJ_kvxa-52" value="1" style="text;strokeColor=none;align=center;fillColor=none;html=1;verticalAlign=middle;whiteSpace=wrap;rounded=0;fontSize=43;" vertex="1" parent="1">
          <mxGeometry x="93.7" y="590" width="60" height="30" as="geometry" />
        </mxCell>
        <mxCell id="fEJGuQPyW0wvUsJ_kvxa-54" value="2" style="text;strokeColor=none;align=center;fillColor=none;html=1;verticalAlign=middle;whiteSpace=wrap;rounded=0;fontSize=43;" vertex="1" parent="1">
          <mxGeometry x="290" y="590" width="60" height="30" as="geometry" />
        </mxCell>
        <mxCell id="fEJGuQPyW0wvUsJ_kvxa-55" value="3" style="text;strokeColor=none;align=center;fillColor=none;html=1;verticalAlign=middle;whiteSpace=wrap;rounded=0;fontSize=43;" vertex="1" parent="1">
          <mxGeometry x="90" y="850" width="60" height="30" as="geometry" />
        </mxCell>
        <mxCell id="fEJGuQPyW0wvUsJ_kvxa-56" value="4" style="text;strokeColor=none;align=center;fillColor=none;html=1;verticalAlign=middle;whiteSpace=wrap;rounded=0;fontSize=43;" vertex="1" parent="1">
          <mxGeometry x="290" y="850" width="60" height="30" as="geometry" />
        </mxCell>
        <mxCell id="fEJGuQPyW0wvUsJ_kvxa-57" value="" style="endArrow=classic;html=1;rounded=0;" edge="1" parent="1">
          <mxGeometry width="50" height="50" relative="1" as="geometry">
            <mxPoint x="80" y="960" as="sourcePoint" />
            <mxPoint x="370" y="960" as="targetPoint" />
          </mxGeometry>
        </mxCell>
        <mxCell id="fEJGuQPyW0wvUsJ_kvxa-61" value="Interkoneksi" style="text;strokeColor=none;align=center;fillColor=none;html=1;verticalAlign=middle;whiteSpace=wrap;rounded=0;strokeWidth=1;fontSize=25;" vertex="1" parent="1">
          <mxGeometry x="50" y="950" width="340" height="75" as="geometry" />
        </mxCell>
        <mxCell id="fEJGuQPyW0wvUsJ_kvxa-62" value="Shared Memory&lt;span style=&quot;color: rgba(0, 0, 0, 0); font-family: monospace; font-size: 0px; text-align: start; text-wrap-mode: nowrap;&quot;&gt;%3CmxGraphModel%3E%3Croot%3E%3CmxCell%20id%3D%220%22%2F%3E%3CmxCell%20id%3D%221%22%20parent%3D%220%22%2F%3E%3CmxCell%20id%3D%222%22%20value%3D%22Arsitektur%20Multiprosesor%22%20style%3D%22text%3BstrokeColor%3Dnone%3Balign%3Dcenter%3BfillColor%3Dnone%3Bhtml%3D1%3BverticalAlign%3Dmiddle%3BwhiteSpace%3Dwrap%3Brounded%3D0%3BstrokeWidth%3D1%3BfontSize%3D25%3B%22%20vertex%3D%221%22%20parent%3D%221%22%3E%3CmxGeometry%20x%3D%2255%22%20y%3D%2287.5%22%20width%3D%22340%22%20height%3D%2275%22%20as%3D%22geometry%22%2F%3E%3C%2FmxCell%3E%3C%2Froot%3E%3C%2FmxGraphModel%3E&lt;/span&gt;" style="text;strokeColor=none;align=center;fillColor=none;html=1;verticalAlign=middle;whiteSpace=wrap;rounded=0;strokeWidth=1;fontSize=25;" vertex="1" parent="1">
          <mxGeometry x="450" y="895" width="340" height="75" as="geometry" />
        </mxCell>
        <mxCell id="fEJGuQPyW0wvUsJ_kvxa-64" value="" style="endArrow=classic;html=1;rounded=0;" edge="1" parent="1" target="fEJGuQPyW0wvUsJ_kvxa-63">
          <mxGeometry width="50" height="50" relative="1" as="geometry">
            <mxPoint x="620" y="640" as="sourcePoint" />
            <mxPoint x="620" y="790" as="targetPoint" />
          </mxGeometry>
        </mxCell>
        <mxCell id="fEJGuQPyW0wvUsJ_kvxa-63" value="System Bus" style="text;strokeColor=none;align=center;fillColor=none;html=1;verticalAlign=middle;whiteSpace=wrap;rounded=0;strokeWidth=1;fontSize=25;" vertex="1" parent="1">
          <mxGeometry x="440" y="620" width="340" height="75" as="geometry" />
        </mxCell>
      </root>
    </mxGraphModel>
  </diagram>
</mxfile>
